HIERARCHY
ROOT hip
{
	OFFSET 0.000000 0.000000 0.000000 
	CHANNELS 6 Xposition Yposition Zposition Xrotation Zrotation Yrotation
	JOINT abdomen
	{
		OFFSET 0.000000 3.402643 0.000000 
		CHANNELS 3 Xrotation Zrotation Yrotation
		JOINT chest
		{
			OFFSET 0.000000 8.438565 -0.680529 
			CHANNELS 3 Xrotation Zrotation Yrotation
			JOINT neck
			{
				OFFSET 0.000000 10.207942 -0.272212 
				CHANNELS 3 Xrotation Zrotation Yrotation
				JOINT head
				{
					OFFSET 0.000000 3.130431 0.000000 
					CHANNELS 3 Xrotation Zrotation Yrotation
					End Site
					{
						OFFSET 0.000000 3.130435 0.000000 
					}
				}
			}
			JOINT lCollar
			{
				OFFSET 3.470700 6.669187 -0.816635 
				CHANNELS 3 Yrotation Zrotation Xrotation
				JOINT lShldr
				{
					OFFSET 3.198488 0.000000 0.000000 
					CHANNELS 3 Zrotation Yrotation Xrotation
					JOINT lForeArm
					{
						OFFSET 10.139888 0.000000 0.000000 
						CHANNELS 3 Yrotation Zrotation Xrotation
						JOINT lHand
						{
							OFFSET 8.370511 0.000000 0.000000 
							CHANNELS 3 Zrotation Yrotation Xrotation
							End Site
							{
								OFFSET 4.083176 0.000000 0.000000 
							}
						}
					}
				}
			}
			JOINT rCollar
			{
				OFFSET -3.470700 6.669187 -0.816635 
				CHANNELS 3 Yrotation Zrotation Xrotation
				JOINT rShldr
				{
					OFFSET -3.198488 0.000000 0.000000 
					CHANNELS 3 Zrotation Yrotation Xrotation
					JOINT rForeArm
					{
						OFFSET -10.139888 0.000000 0.000000 
						CHANNELS 3 Yrotation Zrotation Xrotation
						JOINT rHand
						{
							OFFSET -8.370511 0.000000 0.000000 
							CHANNELS 3 Zrotation Yrotation Xrotation
							End Site
							{
								OFFSET -4.083176 0.000000 0.000000 
							}
						}
					}
				}
			}
		}
	}
	JOINT lThigh
	{
		OFFSET 5.308129 -1.633274 1.361059 
		CHANNELS 3 Xrotation Zrotation Yrotation
		JOINT lShin
		{
			OFFSET -2.041588 -20.007561 0.000000 
			CHANNELS 3 Xrotation Zrotation Yrotation
			JOINT lFoot
			{
				OFFSET 0.000000 -19.190928 -1.224953 
				CHANNELS 3 Xrotation Yrotation Zrotation
				End Site
				{
					OFFSET 0.000000 -2.449906 4.627600 
				}
			}
		}
	}
	JOINT rThigh
	{
		OFFSET -5.308129 -1.633274 1.361059 
		CHANNELS 3 Xrotation Zrotation Yrotation
		JOINT rShin
		{
			OFFSET 2.041588 -20.007561 0.000000 
			CHANNELS 3 Xrotation Zrotation Yrotation
			JOINT rFoot
			{
				OFFSET 0.000000 -19.190928 -1.224953 
				CHANNELS 3 Xrotation Yrotation Zrotation
				End Site
				{
					OFFSET 0.000000 -2.449906 4.627600 
				}
			}
		}
	}
}
MOTION
Frames: 20
Frame Time: 0.016667
0.635703 43.728249 -5.844633 7.578130 6.640630 3.261720 -37.571301 1.811550 -5.827340 39.697300 4.560550 -1.953130 30.160999 10.348800 -12.720200 5.722660 6.337890 -7.479390 2.000000 -2.000000 0.000000 -89.792999 -7.868680 -148.955994 106.136002 1.257110 0.191569 -1.278130 3.225010 150.462006 -2.000000 2.000000 0.000000 73.641296 20.336901 160.815002 -28.100599 -1.105760 0.104559 1.366340 -3.430010 -120.783997 -15.242834 -8.278770 0.673202 25.351461 3.978618 4.356738 -5.444401 11.640245 3.734717 -15.906284 3.580125 24.068401 26.008381 -4.727437 -4.085591 -12.535450 -6.232082 -0.828887 
0.696996 43.721321 -5.671104 7.753910 6.396480 2.597660 -37.428299 2.061950 -5.910430 39.736301 4.658200 -1.923040 29.807800 10.259000 -12.713600 5.585940 6.328130 -7.440330 2.000000 -2.000000 0.000000 -89.993401 -8.002690 -148.731003 105.783997 1.247370 0.190992 -1.287910 3.225000 150.774002 -2.000000 2.000000 0.000000 73.670403 21.100100 159.397995 -27.544001 -1.096020 0.103980 1.366340 -3.430010 -121.204002 -15.771189 -8.153150 -0.798721 23.501997 3.916974 4.128366 -5.795861 11.930058 3.967773 -15.952739 3.782827 24.189688 25.665127 -4.687884 -4.017948 -12.181713 -5.997366 -0.721271 
0.779853 43.736935 -5.467659 7.929690 6.279300 1.845700 -37.283501 2.339320 -5.753940 39.765598 4.658200 -1.786320 29.575800 10.150600 -12.849700 5.439450 6.230470 -7.470700 2.000000 -2.000000 0.000000 -90.092102 -8.250410 -148.078003 105.519997 1.247370 0.190992 -1.287910 3.225000 151.341003 -2.000000 2.000000 0.000000 73.591599 21.625099 157.800003 -26.958000 -1.096020 0.103980 1.366340 -3.430010 -121.056999 -16.018032 -8.167587 -2.541657 21.228834 3.768445 3.898797 -5.425806 12.295900 4.136820 -15.825779 3.750653 24.422052 25.150337 -4.668916 -3.973476 -12.097119 -5.584754 -0.583201 
0.862710 43.752560 -5.264226 8.105470 6.171880 1.114330 -37.139198 2.620120 -5.588820 39.794899 4.648440 -1.639830 29.333799 10.043500 -12.995300 5.302740 6.113280 -7.489190 2.000000 -2.000000 0.000000 -90.191101 -8.488380 -147.425003 105.257004 1.247370 0.190992 -1.287920 3.234770 151.897003 -2.000000 2.000000 0.000000 73.483498 22.149200 156.201996 -26.382099 -1.096590 0.094235 1.366340 -3.430010 -120.911003 -16.304014 -8.160614 -4.291423 18.981009 3.577399 3.678587 -5.084817 12.672379 4.311486 -15.738197 3.753805 24.636358 24.666920 -4.639847 -3.927106 -12.007793 -5.116884 -0.396438 
0.934624 43.780521 -5.080543 8.496090 6.025390 0.694384 -37.089802 2.819830 -5.444660 39.775398 4.589840 -1.532420 29.345699 10.303500 -13.085500 5.292970 6.103520 -7.528260 2.000000 -2.000000 0.000000 -90.095703 -8.973640 -146.470993 105.158997 1.247370 0.190992 -1.287920 3.234770 152.677994 -2.000000 2.000000 0.000000 73.398598 22.576300 155.309998 -25.649700 -1.096590 0.094235 1.366340 -3.430010 -120.315002 -16.597425 -8.065311 -6.705713 16.136866 3.258103 3.416208 -4.339972 13.044332 4.514123 -15.807386 3.766110 24.763512 24.034008 -4.607319 -3.861672 -11.913139 -4.880501 -0.370267 
1.006538 43.808495 -4.896847 8.896480 5.878910 0.284203 -37.020699 3.010420 -5.297570 39.746101 4.521480 -1.425010 29.357700 10.563500 -13.173800 5.292970 6.083980 -7.586860 2.000000 -2.000000 0.000000 -89.999802 -9.468660 -145.516998 105.070999 1.247370 0.190992 -1.287910 3.225000 153.460007 -2.000000 2.000000 0.000000 73.303802 23.003099 154.423996 -24.927000 -1.096590 0.094235 1.366340 -3.430010 -119.719002 -16.784195 -7.895614 -9.143354 13.104301 2.829738 3.190448 -3.536690 13.393475 4.746236 -15.867311 3.745265 24.895006 23.468771 -4.586278 -3.807825 -11.885583 -4.608545 -0.297839 
1.091625 43.810875 -4.689156 9.267580 5.781250 -0.322266 -36.982201 3.285620 -5.203030 39.687500 4.667970 -1.317560 29.563999 10.633900 -13.183300 5.371090 6.064450 -7.586860 2.000000 -2.000000 0.000000 -90.095299 -10.077800 -144.768997 105.091003 1.247370 0.190992 -1.287910 3.225000 154.309006 -2.000000 2.000000 0.000000 72.918701 23.390800 154.977005 -24.067600 -1.096590 0.094235 1.366340 -3.430010 -119.640999 -17.126070 -7.577484 -9.597479 10.372696 2.382008 2.951758 -2.295669 11.581813 4.474105 -15.985631 3.703419 25.022011 22.990749 -4.527405 -3.766829 -11.835958 -4.293979 -0.213486 
1.176710 43.813152 -4.481475 9.638670 5.683590 -0.926767 -36.943600 3.557410 -5.118290 39.628899 4.814450 -1.219880 29.760799 10.703000 -13.183000 5.439450 6.035160 -7.596630 2.000000 -2.000000 0.000000 -90.201103 -10.667800 -144.001007 105.099998 1.247370 0.190992 -1.297700 3.234760 155.149002 -2.000000 2.000000 0.000000 72.543602 23.769100 155.542007 -23.208300 -1.096590 0.094235 1.366340 -3.430010 -119.572998 -17.281471 -7.124626 -10.073545 7.254395 1.743855 2.762616 -0.830294 9.743040 4.338728 -16.016932 3.640140 25.140884 22.406254 -4.449965 -3.713158 -11.735996 -3.939586 -0.161405 
1.267838 43.811256 -4.261147 9.951170 5.625000 -1.268570 -36.913399 3.750320 -4.992460 39.550800 4.843750 -1.132810 29.865601 10.965200 -13.152600 5.507810 6.103520 -7.606380 2.000000 -2.000000 0.000000 -90.024002 -11.511800 -143.039993 105.042000 1.247370 0.190992 -1.297690 3.224990 156.125000 -2.000000 2.000000 0.000000 72.364403 24.114901 155.764999 -22.300100 -1.096590 0.094235 1.366350 -3.439780 -118.967003 -17.331743 -6.789921 -10.913007 4.032122 0.992915 2.589694 2.518013 7.314343 3.888638 -16.110628 3.574484 25.126902 22.188778 -4.437188 -3.691504 -12.018543 -3.797971 -0.165593 
1.358978 43.809368 -4.040829 10.283200 5.566410 -1.621090 -36.873100 3.939810 -4.876430 39.472698 4.873050 -1.034330 29.970900 11.226000 -13.112500 5.566410 6.162110 -7.616140 2.000000 -2.000000 0.000000 -89.846397 -12.365500 -142.089005 104.983002 1.247370 0.190992 -1.297710 3.244520 157.110992 -2.000000 2.000000 0.000000 72.195198 24.451300 155.992996 -21.401899 -1.097170 0.084490 1.366350 -3.439780 -118.362000 -17.714483 -6.562516 -11.658468 1.573879 0.358978 2.411157 4.375808 4.963266 3.685779 -16.148207 3.493082 25.140324 21.827137 -4.396657 -3.664820 -12.224308 -3.671931 -0.152475 
1.454780 43.794754 -3.780329 10.507800 5.517580 -2.158200 -36.857101 4.210310 -4.655970 39.394501 4.931640 -0.887832 30.067301 11.274500 -13.176400 5.595700 6.152340 -7.655200 2.000000 -2.000000 0.000000 -89.589500 -13.245800 -141.061996 104.827003 1.247370 0.190992 -1.297710 3.244520 158.225006 -2.000000 2.000000 0.000000 72.337997 24.768801 156.035995 -20.366699 -1.097170 0.084490 1.366350 -3.439780 -117.112000 -18.244926 -6.550687 -12.158733 0.173732 -0.004961 2.251266 5.873089 2.659194 3.477485 -16.184269 3.453677 25.179111 21.716612 -4.392982 -3.624603 -12.327014 -3.229394 0.003395 
1.550593 43.780262 -3.519839 10.722700 5.488280 -2.684610 -36.830399 4.459120 -4.437190 39.316399 4.980470 -0.732422 30.143900 11.313500 -13.239700 5.625000 6.142580 -7.694270 2.000000 -2.000000 0.000000 -89.351097 -14.146300 -140.044006 104.661003 1.247370 0.190992 -1.307490 3.244520 159.347000 -2.000000 2.000000 0.000000 72.480202 25.096001 156.065002 -19.341299 -1.097170 0.084490 1.366350 -3.439780 -115.872002 -19.140406 -6.736459 -12.616894 -0.388659 -0.061358 2.088343 6.949291 0.380546 3.191341 -16.117037 3.395515 25.260302 21.344187 -4.358565 -3.609114 -12.299704 -2.802670 0.155768 
1.657753 43.735798 -3.207403 10.791000 5.380860 -3.251950 -36.794300 4.726230 -4.225290 39.287102 5.029300 -0.575316 30.181999 11.241600 -13.220700 5.615240 6.132810 -7.684500 2.000000 -2.000000 0.000000 -88.969704 -14.944100 -138.927994 104.524002 1.247370 0.190992 -1.307490 3.244520 160.401993 -2.000000 2.000000 0.000000 72.827599 25.400801 156.087006 -18.286600 -1.087420 0.083911 1.366360 -3.449540 -115.022003 -19.468107 -6.858064 -12.973307 -1.029021 -0.224818 1.951410 9.612789 -1.180212 3.144609 -16.040171 3.438316 25.245388 21.411903 -4.371198 -3.621140 -12.534683 -2.307151 0.293856 
1.764913 43.691338 -2.894969 10.878900 5.283200 -3.807690 -36.767899 4.993360 -4.014290 39.267601 5.068360 -0.419059 30.209999 11.171100 -13.211200 5.605470 6.123050 -7.684510 2.000000 -2.000000 0.000000 -88.597198 -15.761800 -137.813004 104.377998 1.247370 0.190992 -1.307490 3.244520 161.466003 -2.000000 2.000000 0.000000 73.174400 25.715401 156.098999 -17.232201 -1.088000 0.074165 1.366360 -3.449540 -114.181999 -20.019842 -7.134064 -13.288152 -1.117913 -0.150045 1.835661 10.852506 -2.738766 3.060102 -15.907982 3.487752 25.226978 21.408876 -4.382561 -3.603783 -12.725429 -1.855679 0.477622 
1.869094 43.629986 -2.523298 10.771500 5.000000 -4.393680 -36.686298 5.347290 -3.793370 39.326199 5.107420 -0.243272 30.202999 10.918600 -13.240200 5.566410 6.044920 -7.674750 2.000000 -2.000000 0.000000 -88.218002 -16.491301 -136.727005 104.397003 1.247370 0.190992 -1.317270 3.244510 162.520004 -2.000000 2.000000 0.000000 73.768898 26.155701 155.593002 -16.079901 -1.088000 0.074165 1.366370 -3.459310 -112.913002 -19.890066 -7.202871 -12.408330 -1.102732 -0.170164 1.884464 13.085320 -3.241852 3.132314 -15.510902 3.662425 25.167809 21.404665 -4.402125 -3.596903 -13.054536 -1.408640 0.681601 
1.973266 43.568653 -2.151615 10.664100 4.726560 -4.989430 -36.584801 5.688670 -3.579170 39.384800 5.146480 -0.047952 30.186399 10.677100 -13.275600 5.527350 5.966800 -7.655230 2.000000 -2.000000 0.000000 -87.848701 -17.211300 -135.621994 104.406998 1.247370 0.190992 -1.317270 3.244510 163.574997 -2.000000 2.000000 0.000000 74.372002 26.615801 155.091003 -14.917700 -1.088000 0.074165 1.356590 -3.469080 -111.633003 -19.785233 -7.289774 -11.511329 -0.922759 -0.157975 1.964969 15.229404 -3.783726 3.182407 -15.178308 3.892643 25.068256 21.555597 -4.443930 -3.594836 -13.462980 -0.953307 0.892395 
2.080751 43.512348 -1.766744 10.478500 4.287110 -5.311770 -36.581799 6.071210 -3.504670 39.306599 5.244140 0.069252 30.135000 10.612300 -13.306600 5.478520 5.966800 -7.674770 2.000000 -2.000000 0.000000 -87.589203 -17.612700 -134.764999 104.925003 1.247370 0.190992 -1.317280 3.254270 164.824997 -2.000000 2.000000 0.000000 75.031898 26.882500 155.218002 -13.990000 -1.088000 0.074165 1.356590 -3.469080 -111.251999 -19.219090 -7.178163 -11.169262 -0.682884 -0.229920 2.162357 14.545101 -3.744672 3.087157 -14.703703 4.232829 24.812693 21.705145 -4.497097 -3.613619 -13.791908 -0.739207 1.057421 
2.188226 43.456032 -1.381851 10.283200 3.847660 -5.634770 -36.569401 6.442300 -3.406150 39.218800 5.351560 0.186458 30.083599 10.547600 -13.335800 5.449220 5.976560 -7.684530 2.000000 -2.000000 0.000000 -87.349098 -18.014799 -133.901993 105.431999 1.247370 0.190992 -1.317280 3.254270 166.065002 -2.000000 2.000000 0.000000 75.701202 27.159300 155.339996 -13.052800 -1.088580 0.064420 1.356590 -3.469080 -110.871002 -18.799215 -7.121730 -10.789673 -0.138223 -0.170842 2.383624 14.910967 -3.808018 2.970295 -14.211133 4.588727 24.531254 21.752939 -4.501328 -3.585191 -14.048294 -0.517559 1.129658 
2.262459 43.400234 -1.059025 10.234400 3.984380 -5.018850 -36.542999 6.511960 -3.443820 39.160198 5.585940 0.186497 29.646799 10.903000 -13.471200 5.341800 6.093750 -7.762640 2.000000 -2.000000 0.000000 -87.167900 -18.155100 -133.542999 106.458000 1.257110 0.191569 -1.327060 3.254260 166.445999 -2.000000 2.000000 0.000000 76.628601 27.542700 155.929993 -12.808600 -1.088580 0.064420 1.356580 -3.459320 -112.082001 -18.555674 -7.565966 -10.156805 0.033523 -0.182670 2.504013 15.099566 -5.061892 2.969059 -14.279023 4.601409 23.947126 22.968903 -4.575670 -3.707693 -14.747292 -1.124428 0.936211 
2.336692 43.344437 -0.736206 10.185500 4.130860 -4.404300 -36.498100 6.603320 -3.478110 39.091801 5.810550 0.176770 29.229200 11.250200 -13.615900 5.214840 6.201170 -7.850510 2.000000 -2.000000 0.000000 -86.986298 -18.305099 -133.182007 107.492996 1.257110 0.191569 -1.327060 3.254260 166.817001 -2.000000 2.000000 0.000000 77.575897 27.917200 156.529999 -12.554700 -1.088580 0.064420 1.366370 -3.459310 -113.283997 -18.330971 -8.016659 -9.532096 0.278568 -0.175704 2.640698 15.198001 -6.356959 2.967467 -14.340264 4.601660 23.355867 24.147062 -4.640001 -3.858040 -15.389261 -1.669547 0.713260 
